<?xml version="1.0" encoding="utf-8"?>
<!-- Generator: Adobe Illustrator 17.1.0, SVG Export Plug-In . SVG Version: 6.00 Build 0)  -->
<!DOCTYPE svg PUBLIC "-//W3C//DTD SVG 1.1//EN" "http://www.w3.org/Graphics/SVG/1.1/DTD/svg11.dtd">
<svg version="1.1" id="Layer_1" xmlns="http://www.w3.org/2000/svg" xmlns:xlink="http://www.w3.org/1999/xlink" x="0px" y="0px"
	 viewBox="0 0 841.89 595.28" enable-background="new 0 0 841.89 595.28" xml:space="preserve">
<g enable-background="new    ">
	<path fill="#FFFFFF" d="M418.674,386.796c-0.249,0.99-0.498,2.286-0.741,3.889c-0.249,1.608-0.371,2.777-0.371,3.519
		c0,2.963,1.481,4.444,4.444,4.444c1.725,0,3.519-0.429,5.37-1.297c1.852-0.862,3.703-1.852,5.555-2.963
		c1.853-1.11,3.519-2.095,5-2.962c1.481-0.862,2.714-1.297,3.703-1.297c2.466,0,4.195,2.471,5.186,7.407
		c-4.201,3.212-8.703,6.238-13.518,9.073c-4.814,2.841-9.444,5.37-13.888,7.592c-4.444,2.223-8.645,4.011-12.592,5.37
		c-3.952,1.354-7.164,2.037-9.629,2.037c-2.72,0-5.312-0.556-7.777-1.667c-2.471-1.11-3.704-3.761-3.704-7.962
		c0-0.741,0.122-2.037,0.371-3.889c0.243-1.852,0.492-3.148,0.741-3.889c5.428-26.416,9.75-47.462,12.962-63.143
		c3.206-15.677,5.613-27.648,7.221-35.924c1.603-8.269,2.65-13.76,3.148-16.48c0.492-2.714,0.741-4.317,0.741-4.814
		c0-2.963-1.111-4.444-3.333-4.444c-0.989,0-2.471,0.434-4.444,1.296c-1.979,0.868-4.074,1.73-6.296,2.593
		c-2.222,0.868-4.259,1.73-6.111,2.592c-1.852,0.868-3.275,1.297-4.259,1.297c-1.481,0-2.592-0.741-3.333-2.223
		s-1.36-3.205-1.852-5.185c4.444-2.465,9.629-5.242,15.554-8.332c5.925-3.085,11.666-5.983,17.221-8.703
		c5.555-2.714,10.491-4.937,14.813-6.666c4.316-1.725,7.222-2.593,8.703-2.593c4.195,0,6.296,2.101,6.296,6.296
		c0,1.73-0.249,3.582-0.741,5.555L418.674,386.796z M437.562,213.847c-4.693,0-8.396-1.418-11.11-4.26
		c-2.72-2.835-4.074-6.603-4.074-11.295c0-6.666,2.28-12.649,6.852-17.962c4.565-5.306,10.058-7.962,16.48-7.962
		c4.936,0,8.454,1.608,10.555,4.814c2.095,3.211,3.147,7.285,3.147,12.221c0,6.175-2.101,11.793-6.296,16.851
		C448.915,211.318,443.729,213.847,437.562,213.847z"/>
</g>
<circle fill="none" stroke="#FFFFFF" stroke-width="24" stroke-miterlimit="10" cx="420.945" cy="297.64" r="202.395"/>
</svg>
