<?xml version="1.0" encoding="utf-8"?>
<!-- Generator: Adobe Illustrator 17.1.0, SVG Export Plug-In . SVG Version: 6.00 Build 0)  -->
<!DOCTYPE svg PUBLIC "-//W3C//DTD SVG 1.1//EN" "http://www.w3.org/Graphics/SVG/1.1/DTD/svg11.dtd">
<svg version="1.1" id="Layer_1" xmlns="http://www.w3.org/2000/svg" xmlns:xlink="http://www.w3.org/1999/xlink" x="0px" y="0px"
	 viewBox="0 0 595.2 595.3" enable-background="new 0 0 595.2 595.3" xml:space="preserve">
<path fill="#EBEBEB" d="M297.6,11.4c37.6,0,75.2,8.2,111.2,22.9c34.3,14.7,63.8,34.3,89.9,60.5s47.4,57.2,60.5,89.9
	c14.7,34.3,22.9,72,22.9,111.2c0,37.6-8.2,75.2-22.9,111.2c-14.7,34.3-34.3,63.8-60.5,89.9c-26.2,26.2-57.2,47.4-89.9,60.5
	c-34.3,14.7-72,22.9-111.2,22.9s-75.2-8.2-111.2-22.9c-34.3-14.7-63.8-34.3-89.9-60.5C70.3,471,49.1,439.9,36,407.2
	c-14.7-34.3-22.9-72-22.9-111.2c0-37.6,8.2-75.2,22.9-111.2c14.7-34.3,34.3-63.8,60.5-89.9s57.2-47.4,89.9-60.5
	C222.4,19.6,260,11.4,297.6,11.4"/>
<polyline fill="none" stroke="#919191" stroke-width="14" stroke-miterlimit="10" points="119.4,294.4 297.6,116.1 475.9,294.4 "/>
<line fill="none" stroke="#919191" stroke-width="14" stroke-miterlimit="10" x1="297.6" y1="116.1" x2="297.6" y2="487.3"/>
<g>
	<path fill="#919191" d="M297.6,11.4c37.6,0,75.2,8.2,111.2,22.9c34.3,14.7,63.8,34.3,89.9,60.5s47.4,57.2,60.5,89.9
		c14.7,34.3,22.9,72,22.9,111.2c0,37.6-8.2,75.2-22.9,111.2c-14.7,34.3-34.3,63.8-60.5,89.9c-26.2,26.2-57.2,47.4-89.9,60.5
		c-34.3,14.7-72,22.9-111.2,22.9s-75.2-8.2-111.2-22.9c-34.3-14.7-63.8-34.3-89.9-60.5C70.3,471,49.1,439.9,36,407.2
		c-14.7-34.3-22.9-72-22.9-111.2c0-37.6,8.2-75.2,22.9-111.2c14.7-34.3,34.3-63.8,60.5-89.9s57.2-47.4,89.9-60.5
		C222.4,19.6,260,11.4,297.6,11.4 M297.6-1.6C134.1-1.6,0,130.8,0,296s132.5,297.6,297.6,297.6S595.3,461.2,595.3,296
		S462.8-1.6,297.6-1.6L297.6-1.6z"/>
</g>
</svg>
