<?xml version="1.0" standalone="no"?>
<!DOCTYPE svg PUBLIC "-//W3C//DTD SVG 1.1//EN" "http://www.w3.org/Graphics/SVG/1.1/DTD/svg11.dtd" >
<svg xmlns="http://www.w3.org/2000/svg">
<metadata></metadata>
<defs>
<font id="dinroundpro-blackblack" horiz-adv-x="1138" >
<font-face units-per-em="2048" ascent="1638" descent="-410" />
<missing-glyph horiz-adv-x="454" />
<glyph horiz-adv-x="0" />
<glyph horiz-adv-x="682" />
<glyph unicode=" "  horiz-adv-x="454" />
<glyph unicode="&#x09;" horiz-adv-x="454" />
<glyph unicode="&#xa0;" horiz-adv-x="454" />
<glyph unicode="!" horiz-adv-x="749" d="M221 188q0 80 57.5 137.5t137.5 57.5q79 0 136.5 -57.5t57.5 -137.5t-57 -137t-137 -57t-137.5 57.5t-57.5 136.5zM234 719v506q0 67 3.5 95t19.5 58q20 39 62.5 63.5t95.5 24.5t95 -24.5t62 -63.5q16 -30 19.5 -58t3.5 -95v-506q0 -67 -3.5 -95.5t-19.5 -58.5 q-20 -39 -62 -63.5t-95 -24.5t-95.5 24.5t-62.5 63.5q-16 30 -19.5 58.5t-3.5 95.5z" />
<glyph unicode="&#x22;" horiz-adv-x="1011" d="M98 1039v204q0 62 4 90.5t17 55.5q18 37 57.5 59t89.5 22t90 -22t58 -59q13 -27 16.5 -55t3.5 -91v-204q0 -63 -3.5 -90.5t-16.5 -54.5q-18 -37 -58 -59.5t-90 -22.5t-89.5 22.5t-57.5 59.5q-13 27 -17 55t-4 90zM578 1039v204q0 63 3.5 91t16.5 55q18 37 57.5 59 t89.5 22t90 -22t58 -59q13 -27 16.5 -55t3.5 -91v-204q0 -63 -3.5 -90.5t-16.5 -54.5q-18 -37 -58 -59.5t-90 -22.5t-89.5 22.5t-57.5 59.5q-13 27 -16.5 54.5t-3.5 90.5z" />
<glyph unicode="#" horiz-adv-x="1587" d="M80 498q0 45 20.5 80.5t53.5 52.5q24 12 49.5 15t81.5 3h62l42 209h-27q-92 0 -131 19q-33 17 -53 52.5t-20 80.5t20 80.5t53 52.5q24 12 49.5 15t81.5 3h88l28 142q12 59 23 88.5t39 56.5q38 35 98 35q69 0 118 -46q20 -19 30.5 -42t10 -52.5t-2.5 -48.5t-9 -53l-16 -80 h212l29 142q8 42 12.5 60.5t16.5 42t32 42.5q38 35 98 35q69 0 118 -46q27 -25 35.5 -62t6 -63t-11.5 -71l-17 -80h3q56 0 81.5 -3t49.5 -15q33 -17 53 -52.5t20 -80.5t-20 -80.5t-53 -52.5q-39 -19 -131 -19h-63l-42 -209h27q56 0 81.5 -3t49.5 -15q33 -17 53.5 -52.5 t20.5 -80.5t-20.5 -80.5t-53.5 -52.5q-39 -19 -131 -19h-87l-35 -174q-12 -59 -23 -88.5t-39 -56.5q-38 -35 -98 -35q-69 0 -118 46q-20 19 -30.5 42t-10 52.5t2.5 47.5t9 53l22 113h-212l-35 -174q-8 -42 -12.5 -60.5t-16.5 -42t-32 -42.5q-38 -35 -98 -35q-69 0 -118 46 q-27 25 -35.5 62t-6 62.5t11.5 70.5l23 113h-2q-92 0 -131 19q-33 17 -53.5 52.5t-20.5 80.5zM667 649h212l42 209h-212z" />
<glyph unicode="(" horiz-adv-x="733" d="M147 335v788q0 187 43 276q42 87 144 189q39 40 63 56.5t56 26.5q34 13 84 1t83 -45t42.5 -79.5t-3.5 -78.5q-10 -31 -25.5 -53.5t-54.5 -61.5q-38 -38 -61 -79q-35 -59 -35 -166v-760q0 -107 35 -166q23 -41 61 -79q39 -39 54.5 -61.5t25.5 -53.5q13 -32 3.5 -78.5 t-42.5 -79.5t-83 -45t-84 1q-32 10 -56 26.5t-63 56.5q-102 101 -144 189q-43 89 -43 276z" />
<glyph unicode=")" horiz-adv-x="733" d="M71 -90q-10 46 3 79q10 30 26 53t55 62q36 36 60 79q35 59 35 166v760q0 107 -35 166q-24 43 -60 79q-39 39 -55 62t-26 53q-13 33 -3 79t43 79t83 45t84 -1q31 -10 55 -26.5t63 -56.5q101 -102 144 -189q43 -89 43 -276v-788q0 -187 -43 -276q-43 -87 -144 -189 q-39 -40 -63 -56.5t-55 -26.5q-34 -13 -84 -1t-83 45t-43 79z" />
<glyph unicode="," horiz-adv-x="611" d="M51 -161q-4 30 1.5 59.5t24.5 85.5l89 267q20 61 32 85.5t33 45.5q42 42 107 42q54 0 109.5 -35t63.5 -100q4 -30 -1.5 -59.5t-24.5 -85.5l-89 -267q-20 -61 -32 -85.5t-33 -45.5q-42 -42 -107 -42q-54 0 -109.5 35t-63.5 100z" />
<glyph unicode="-" horiz-adv-x="872" d="M92 604q0 45 20.5 80.5t53.5 52.5q39 19 131 19h278q93 0 132 -19q33 -17 53 -52.5t20 -80.5t-20 -80.5t-53 -52.5q-24 -11 -50 -14.5t-82 -3.5h-278q-56 0 -81.5 3t-49.5 15q-33 17 -53.5 52.5t-20.5 80.5z" />
<glyph unicode="." horiz-adv-x="602" d="M86 209q0 89 63 152t152 63t152 -63t63 -152t-63 -152t-152 -63t-152 63t-63 152z" />
<glyph unicode="/" horiz-adv-x="882" d="M40.5 -21.5q-0.5 18.5 4 41t8.5 37t13 40.5l453 1360q10 31 16.5 47t20.5 41.5t28.5 38.5t39 23t55.5 10q55 0 99 -30.5t59 -75.5q5 -16 5.5 -34.5t-4 -41t-8.5 -37t-13 -40.5l-453 -1360q-10 -31 -16.5 -47t-20.5 -41.5t-28.5 -38.5t-39 -23t-55.5 -10q-55 0 -99 30.5 t-59 75.5q-5 16 -5.5 34.5z" />
<glyph unicode="0" d="M100 442v574q0 109 39 197t105 143.5t149.5 84.5t175.5 29t175.5 -29t149.5 -84.5t105 -143.5t39 -197v-574q0 -109 -39 -197t-105 -143.5t-149.5 -84.5t-175.5 -29t-175.5 29t-149.5 84.5t-105 143.5t-39 197zM436 440q0 -73 37.5 -111t95.5 -38t95.5 38t37.5 111v576 q0 73 -38 112t-95 39t-95 -39t-38 -112v-576z" />
<glyph unicode="1" d="M98.5 893q-11.5 41 0.5 77q9 26 25 47t57 62l302 302q85 85 179 85q74 0 121 -47q31 -31 39.5 -69.5t8.5 -95.5v-1035q0 -63 -3.5 -90.5t-16.5 -54.5q-18 -37 -57.5 -59.5t-89.5 -22.5t-90 22.5t-58 59.5q-13 27 -16.5 54.5t-3.5 90.5v730l-93 -92q-42 -42 -62.5 -57.5 t-46.5 -24.5q-36 -12 -77 -0.5t-74 44.5t-44.5 74z" />
<glyph unicode="2" d="M101 170q0 51 21.5 91t63.5 88l413 474q57 65 81.5 111t24.5 106q0 55 -35 91t-98 36q-56 0 -86.5 -24t-60.5 -82q-28 -55 -66 -80q-33 -25 -90 -25q-75 0 -119 51q-40 47 -40 119q0 67 36 133.5t94 110.5q67 52 143 76t181 24q218 0 347 -109t129 -311q0 -66 -13.5 -121 t-46.5 -109.5t-65.5 -95.5t-94.5 -110l-280 -311h311q56 0 81.5 -3t49.5 -15q33 -17 53.5 -52.5t20.5 -80.5t-20.5 -81t-53.5 -53q-24 -12 -49.5 -15t-81.5 -3h-538q-37 0 -60.5 2t-53.5 13t-51 33q-47 47 -47 122z" />
<glyph unicode="3" d="M116 316q0 74 42 119q47 50 123 50q67 0 103 -32q13 -11 23.5 -25.5t17 -25t22.5 -41.5q20 -36 48.5 -53t84.5 -17q62 0 101.5 40t39.5 115q0 68 -41 108.5t-109 45.5q-54 4 -88 20q-70 36 -70 125q0 90 70 126q34 16 88 20q62 4 103 38.5t41 98.5q0 67 -38 103t-97 36 q-44 0 -70.5 -16.5t-45.5 -51.5q-36 -66 -63 -89q-38 -32 -100 -32q-70 0 -115.5 45.5t-45.5 118.5q0 68 36 132q29 52 77 92q124 104 329 104q203 0 336 -112t133 -309q0 -61 -14 -110.5t-40 -84.5t-51 -57t-57 -43q34 -24 60.5 -50t52.5 -65t40.5 -93t14.5 -120 q0 -140 -63 -240.5t-169 -149t-243 -48.5q-119 0 -200.5 22.5t-151.5 79.5q-114 91 -114 226z" />
<glyph unicode="4" d="M20 382q0 50 47 142l402 805q25 50 40 71t38 39q37 27 82 27q63 0 112.5 -43t49.5 -104q0 -30 -7.5 -54t-33.5 -76l-331 -661h163v2q0 59 3.5 85.5t15.5 52.5q17 34 55 55.5t85 21.5t85.5 -21.5t55.5 -55.5q12 -26 15.5 -52.5t3.5 -85.5v-2h2q58 0 84.5 -3.5t52.5 -15.5 q34 -17 56 -55t22 -85t-22 -85.5t-56 -55.5q-26 -12 -52.5 -15.5t-84.5 -3.5h-2v-2q0 -58 -3.5 -84.5t-15.5 -52.5q-17 -34 -55.5 -56t-85.5 -22t-85 22t-55 56q-12 26 -15.5 52.5t-3.5 84.5v2h-319q-70 0 -112.5 9.5t-74.5 37.5q-56 50 -56 126z" />
<glyph unicode="5" d="M120 316q0 77 47 124q45 45 118 45q67 0 103 -32q28 -23 64 -92q19 -35 45 -52.5t72 -17.5q64 0 101 37q43 43 43 170q0 115 -35.5 161t-106.5 46t-122 -46q-40 -35 -62 -46q-37 -19 -91 -19q-74 0 -119 45q-48 48 -48 141v493q0 99 45 144q19 19 44.5 28.5t44 11 t49.5 1.5h509q59 0 81.5 -3t49.5 -15q33 -17 53.5 -53t20.5 -80t-20.5 -80t-53.5 -53q-27 -12 -50.5 -15.5t-80.5 -3.5h-387v-225q26 21 81 39t116 18q180 0 282 -102q82 -82 109 -174t27 -213q0 -137 -28.5 -221.5t-107.5 -163.5q-125 -125 -344 -125q-107 0 -187 23.5 t-148 78.5q-114 91 -114 226z" />
<glyph unicode="6" d="M78 457q0 79 29.5 171t97.5 228l236 473q25 50 40 71t38 39q37 27 82 27q63 0 112.5 -43t49.5 -104q0 -30 -7.5 -54t-33.5 -76l-151 -302q36 10 88 10q68 0 136 -29t125.5 -82t93 -139t35.5 -190q0 -113 -39 -203.5t-106 -147.5t-154.5 -87.5t-186.5 -30.5q-79 0 -151 19 t-133 57.5t-105.5 93.5t-70 131.5t-25.5 167.5zM414 457q0 -79 42.5 -122.5t106.5 -43.5q65 0 107.5 43.5t42.5 122.5t-42.5 122.5t-107.5 43.5q-64 0 -106.5 -43.5t-42.5 -122.5z" />
<glyph unicode="7" d="M70 1143v128q0 101 45 146q19 19 44.5 28.5t44.5 11t50 1.5h601q69 0 107 -9t70 -38q51 -46 51 -125q0 -46 -32 -129l-379 -1012q-33 -87 -66 -119q-37 -34 -93 -34q-60 0 -110 37.5t-55 92.5q-4 48 29 134l337 899h-308v-12q0 -62 -4 -90.5t-17 -55.5 q-18 -37 -57.5 -59.5t-89.5 -22.5t-90 22.5t-58 59.5q-13 27 -16.5 55t-3.5 91z" />
<glyph unicode="8" d="M80 436q0 52 13 99t28 77t42.5 61t41.5 43.5t39 33.5q-27 23 -46 42.5t-46.5 56.5t-42.5 85t-15 104q0 133 67 233t174 149.5t234 49.5t234 -49.5t174 -149.5t67 -233q0 -45 -11 -87t-26 -70t-38 -56.5t-38 -42.5t-36 -32q25 -21 39 -33.5t41.5 -43.5t42.5 -61t28 -77 t13 -99q0 -110 -38.5 -197t-106 -141t-155.5 -82t-190 -28t-189.5 28t-155 82t-106 141t-38.5 197zM416 444q0 -63 45 -108t108 -45t108.5 45t45.5 108t-45.5 108.5t-108.5 45.5t-108 -45.5t-45 -108.5zM430 1028q0 -58 40 -98.5t99 -40.5t99.5 40.5t40.5 98.5t-40.5 98.5 t-99.5 40.5t-99 -40.5t-40 -98.5z" />
<glyph unicode="9" d="M90 1001q0 91 25.5 167.5t70 131.5t105.5 93.5t133 57.5t151 19q99 0 186.5 -30.5t154.5 -87.5t106 -147.5t39 -203.5q0 -79 -29.5 -171t-97.5 -228l-237 -473q-25 -50 -40 -71t-37 -39q-37 -27 -82 -27q-63 0 -112.5 43t-49.5 104q0 30 7.5 54t33.5 76l150 302 q-36 -10 -88 -10q-68 0 -136 29t-125 82t-92.5 139t-35.5 190zM426 1001q0 -79 42 -122t107 -43t107.5 43t42.5 122t-42.5 122.5t-107.5 43.5q-64 0 -106.5 -43.5t-42.5 -122.5z" />
<glyph unicode="A" horiz-adv-x="1325" d="M44 118q-4 20 -4 37t4 33q8 31 28 86l389 1034q19 49 35.5 74t39.5 44q50 40 127 40t127 -40q23 -18 39 -43.5t35 -74.5l389 -1034q21 -55 29 -86q4 -16 4 -34q0 -16 -4 -36q-8 -40 -41 -73q-53 -53 -129 -53q-61 0 -101 37q-23 20 -36.5 45.5t-34.5 83.5l-21 59h-512 l-22 -59q-21 -58 -34.5 -83.5t-36.5 -45.5q-40 -37 -101 -37q-76 0 -129 53q-32 33 -40 73zM515 516h295l-147 406z" />
<glyph unicode="B" horiz-adv-x="1337" d="M145 220v1018q0 36 2 58.5t14 55.5t35 56t56.5 35t55 13.5t58.5 1.5h386q223 0 344 -114.5t121 -307.5q0 -58 -17.5 -109t-46.5 -87t-51 -56t-45 -36q26 -16 42.5 -27.5t45.5 -41t46.5 -60t31.5 -81t14 -108.5q0 -203 -126.5 -316.5t-328.5 -113.5h-416q-37 0 -58.5 1.5 t-55 13.5t-56.5 35t-35 56t-14 55.5t-2 58.5zM506 319h242q68 0 99.5 39t31.5 93q0 53 -31.5 90t-99.5 37h-242v-259zM506 899h223q68 0 98.5 35t30.5 84q0 50 -30.5 85.5t-98.5 35.5h-223v-240z" />
<glyph unicode="C" horiz-adv-x="1238" d="M98 729q0 92 1.5 143t9 123.5t23 119.5t45 100t72.5 96q159 159 402 159q134 0 217.5 -25t150.5 -85q75 -67 106.5 -139t31.5 -131q0 -87 -50 -137t-124 -50q-55 0 -96 28q-27 19 -47.5 46t-47.5 74q-30 54 -65 77t-84 23q-80 0 -129 -64q-32 -42 -43.5 -112t-11.5 -246 t11.5 -246t43.5 -112q49 -64 129 -64q49 0 83.5 23.5t65.5 77.5q26 46 47 73t48 46q41 28 96 28q74 0 124 -50t50 -136q0 -59 -31.5 -131.5t-106.5 -139.5q-67 -60 -150.5 -85t-217.5 -25q-243 0 -402 159q-43 43 -72.5 96t-45 100t-23 119.5t-9 123.5t-1.5 143z" />
<glyph unicode="D" horiz-adv-x="1333" d="M145 220v1018q0 36 2 58.5t14 55.5t35 56t56.5 35t55 13.5t58.5 1.5h322q321 0 473 -246q50 -81 61 -173.5t11 -309.5t-11 -309.5t-61 -173.5q-152 -246 -473 -246h-322q-37 0 -58.5 1.5t-55 13.5t-56.5 35t-35 56t-14 55.5t-2 58.5zM506 319h158q117 0 172 82 q23 32 30.5 91t7.5 237q0 177 -7.5 236.5t-30.5 91.5q-55 82 -172 82h-158v-820z" />
<glyph unicode="E" horiz-adv-x="1241" d="M145 220v1018q0 36 2 58.5t14 55.5t35 56t56.5 35t55 13.5t58.5 1.5h568q58 0 84.5 -3.5t52.5 -15.5q34 -17 56 -55.5t22 -85.5t-22 -85t-56 -55q-26 -12 -52.5 -15.5t-84.5 -3.5h-428v-244h336q58 0 84.5 -3.5t52.5 -15.5q34 -17 56 -55.5t22 -85.5t-22 -85t-56 -55 q-26 -12 -53 -16t-84 -4h-336v-256h428q58 0 84.5 -3.5t52.5 -15.5q34 -17 56 -55t22 -85t-22 -85.5t-56 -55.5q-26 -12 -52.5 -15.5t-84.5 -3.5h-568q-37 0 -58.5 1.5t-55 13.5t-56.5 35t-35 56t-14 55.5t-2 58.5z" />
<glyph unicode="F" horiz-adv-x="1216" d="M145 233v1005q0 36 2 58.5t14 55.5t35 56t56.5 35t55 13.5t58.5 1.5h568q58 0 84.5 -3.5t52.5 -15.5q34 -17 56 -55.5t22 -85.5t-22 -85t-56 -55q-26 -12 -52.5 -15.5t-84.5 -3.5h-428v-256h336q57 0 84 -4t53 -16q34 -17 56 -55t22 -85t-22 -85t-56 -55q-26 -12 -53 -16 t-84 -4h-336v-330q0 -67 -3.5 -95t-19.5 -58q-20 -39 -62 -63.5t-95 -24.5t-95.5 24.5t-62.5 63.5q-16 30 -19.5 58t-3.5 95z" />
<glyph unicode="G" horiz-adv-x="1282" d="M98 729q0 92 1.5 143t9 123.5t23 119.5t45 100t72.5 96q159 159 402 159q134 0 217.5 -25t150.5 -85q75 -67 106.5 -139t31.5 -131q0 -87 -50 -137t-124 -50q-55 0 -96 28q-27 19 -47.5 46t-47.5 74q-30 54 -65 77t-84 23q-80 0 -129 -64q-32 -42 -43.5 -112t-11.5 -246 q0 -184 12.5 -252.5t40.5 -105.5q21 -28 59.5 -46t83.5 -18q88 0 139 58q46 52 46 118h-4q-57 0 -84.5 4t-53.5 16q-34 17 -55.5 55t-21.5 85t21.5 85t55.5 55q26 12 53.5 16t84.5 4h123q37 0 58.5 -1.5t55 -13.5t56.5 -35t35 -56t14 -55.5t2 -58.5v-9q0 -286 -132 -421 q-88 -90 -179.5 -127.5t-217.5 -37.5q-246 0 -402 156q-43 43 -72.5 96t-45 100.5t-23 121t-9 124.5t-1.5 143z" />
<glyph unicode="H" horiz-adv-x="1392" d="M145 233v992q0 67 3.5 95t19.5 58q20 39 62.5 63.5t95.5 24.5t95 -24.5t62 -63.5q16 -30 19.5 -58t3.5 -95v-328h381v328q0 69 3.5 96t18.5 57q20 39 62.5 63.5t95.5 24.5t95.5 -24.5t62.5 -63.5q15 -30 18.5 -57t3.5 -96v-992q0 -69 -3.5 -96t-18.5 -57 q-20 -39 -62.5 -63.5t-95.5 -24.5t-95.5 24.5t-62.5 63.5q-15 30 -18.5 57t-3.5 96v345h-381v-345q0 -67 -3.5 -95t-19.5 -58q-20 -39 -62 -63.5t-95 -24.5t-95.5 24.5t-62.5 63.5q-16 30 -19.5 58t-3.5 95z" />
<glyph unicode="I" horiz-adv-x="651" d="M145 233v992q0 67 3.5 95t19.5 58q20 39 62.5 63.5t95.5 24.5t95 -24.5t62 -63.5q16 -30 19.5 -58t3.5 -95v-992q0 -67 -3.5 -95t-19.5 -58q-20 -39 -62 -63.5t-95 -24.5t-95.5 24.5t-62.5 63.5q-16 30 -19.5 58t-3.5 95z" />
<glyph unicode="J" horiz-adv-x="1083" d="M49 207q0 32 14 63.5t37 51.5q39 34 95 34q12 0 22.5 -1t23 -4.5t19 -5.5t23.5 -8.5t24 -8.5q52 -19 105 -19q87 0 138.5 49.5t51.5 149.5v717q0 67 3.5 95t19.5 58q20 39 62 63.5t95 24.5t95.5 -24.5t62.5 -63.5q16 -30 19.5 -58t3.5 -95v-725q0 -101 -31 -186t-84 -144 t-123.5 -101t-149.5 -61.5t-163 -19.5q-178 0 -285 79q-78 58 -78 140z" />
<glyph unicode="K" horiz-adv-x="1307" d="M145 233v992q0 67 3.5 95t19.5 58q20 39 62.5 63.5t95.5 24.5t95 -24.5t62 -63.5q16 -30 19.5 -58t3.5 -95v-279l342 411q50 61 84 85t83 24q58 0 108 -42q63 -53 63 -121q0 -40 -16.5 -72.5t-63.5 -88.5l-228 -275l319 -559q31 -55 42 -85t11 -63q0 -92 -88 -143 q-45 -25 -90 -25q-33 0 -60 11t-48.5 34.5t-35.5 43.5t-33 54l-265 464l-124 -148v-218q0 -67 -3.5 -95t-19.5 -58q-20 -39 -62 -63.5t-95 -24.5t-95.5 24.5t-62.5 63.5q-16 30 -19.5 58t-3.5 95z" />
<glyph unicode="L" horiz-adv-x="1175" d="M145 220v1005q0 67 3.5 95t19.5 58q20 39 62.5 63.5t95.5 24.5t95 -24.5t62 -63.5q16 -30 19.5 -58t3.5 -95v-906h405q59 0 85.5 -3.5t52.5 -15.5q34 -17 55.5 -55t21.5 -85t-21.5 -85.5t-55.5 -55.5q-26 -12 -52.5 -15.5t-83.5 -3.5h-547q-37 0 -58.5 1.5t-55 13.5 t-56.5 35t-35 56t-14 55.5t-2 58.5z" />
<glyph unicode="M" horiz-adv-x="1654" d="M145 233v1014q0 62 11 101.5t42 70.5q48 48 120 48q65 0 106 -28q43 -29 88 -103l315 -537l316 537q45 74 88 103q41 28 105 28q73 0 121 -48q31 -31 41.5 -70t10.5 -102v-1014q0 -69 -3.5 -96t-18.5 -57q-20 -39 -62.5 -63.5t-95.5 -24.5t-95.5 24.5t-62.5 63.5 q-15 30 -18.5 57t-3.5 96v465l-167 -288q-31 -54 -65 -77.5t-90 -23.5t-89.5 23.5t-64.5 77.5l-167 288v-465q0 -67 -3.5 -95t-19.5 -58q-20 -39 -62 -63.5t-95 -24.5t-95.5 24.5t-62.5 63.5q-16 30 -19.5 58t-3.5 95z" />
<glyph unicode="N" horiz-adv-x="1433" d="M145 233v1012q0 59 9.5 98t38.5 68q55 55 135 55q59 0 104 -38t108 -132l388 -571v500q0 69 3.5 96t18.5 57q20 39 62.5 63.5t95.5 24.5t95.5 -24.5t62.5 -63.5q15 -30 18.5 -57t3.5 -96v-1012q0 -60 -9.5 -99t-37.5 -67q-55 -55 -135 -55q-59 0 -104 38t-108 132 l-388 571v-500q0 -67 -3.5 -95t-19.5 -58q-20 -39 -62 -63.5t-95 -24.5t-95.5 24.5t-62.5 63.5q-16 30 -19.5 58t-3.5 95z" />
<glyph unicode="O" horiz-adv-x="1310" d="M98 729q0 92 1.5 143t9 123.5t23 119.5t45 100t72.5 96q80 80 178 119.5t228 39.5q248 0 407 -159q43 -43 72.5 -96t44.5 -99.5t22.5 -120t9 -123.5t1.5 -143t-2 -143t-9 -123.5t-22 -120t-44.5 -99.5t-72.5 -96q-159 -159 -407 -159q-130 0 -228 39.5t-178 119.5 q-43 43 -72.5 96t-45 100t-23 119.5t-9 123.5t-1.5 143zM459 729q0 -184 12 -251.5t41 -104.5q51 -66 143 -66q93 0 144 66q29 37 41 104.5t12 251.5t-12.5 252.5t-40.5 105.5q-49 64 -144 64q-94 0 -143 -64q-28 -37 -40.5 -105.5t-12.5 -252.5z" />
<glyph unicode="P" horiz-adv-x="1284" d="M145 233v1005q0 36 2 58.5t14 55.5t35 56t56.5 35t55 13.5t58.5 1.5h359q118 0 214 -39.5t157 -105.5t94 -149.5t33 -174.5t-33 -174.5t-94 -149.5t-157 -105.5t-214 -39.5h-219v-287q0 -67 -3.5 -95t-19.5 -58q-20 -39 -62 -63.5t-95 -24.5t-95.5 24.5t-62.5 63.5 q-16 30 -19.5 58t-3.5 95zM506 840h203q70 0 112.5 44t42.5 105t-42.5 105.5t-112.5 44.5h-203v-299z" />
<glyph unicode="Q" horiz-adv-x="1310" d="M98 729q0 95 1 143t9 122t23 120.5t44.5 99.5t73.5 97q80 80 178 119.5t228 39.5q248 0 407 -159q32 -32 55.5 -68t39.5 -68.5t27 -79.5t16.5 -79.5t8 -91t3 -92.5t0.5 -103q0 -94 -2 -147t-9.5 -123t-25 -124.5t-47.5 -102.5l11 -9q33 -33 46 -50t20 -39q7 -19 7 -38 q0 -46 -42 -88q-41 -41 -87 -41q-18 0 -37 6q-22 8 -40 21t-51 46l-15 14q-119 -66 -285 -66q-130 0 -227.5 39.5t-177.5 119.5q-44 44 -73.5 97t-45 99.5t-23 120t-9 123t-1.5 142.5zM459 729q0 -184 12 -251.5t41 -104.5q51 -66 143 -66q21 0 31 2l-22 23q-34 34 -47 51 t-20 38q-7 19 -7 38q0 46 42 88t88 42q18 0 37 -7q36 -13 84 -61l3 -3q8 78 8 211q0 184 -12.5 252.5t-40.5 105.5q-49 64 -144 64q-94 0 -143 -64q-28 -37 -40.5 -105.5t-12.5 -252.5z" />
<glyph unicode="R" horiz-adv-x="1335" d="M145 233v1005q0 36 2 58.5t14 55.5t35 56t56.5 35t55 13.5t58.5 1.5h359q118 0 214 -39.5t157 -105.5t94 -149.5t33 -174.5q0 -118 -60.5 -219t-172.5 -160l172 -302q31 -55 42 -85t11 -63q0 -92 -88 -143q-45 -25 -90 -25q-33 0 -60 11t-48.5 34.5t-35.5 43.5t-33 54 l-232 408h-122v-310q0 -67 -3.5 -95t-19.5 -58q-20 -39 -62 -63.5t-95 -24.5t-95.5 24.5t-62.5 63.5q-16 30 -19.5 58t-3.5 95zM506 842h203q70 0 112.5 43.5t42.5 103.5q0 61 -42.5 105.5t-112.5 44.5h-203v-297z" />
<glyph unicode="S" horiz-adv-x="1217" d="M44 246q0 67 49 116q39 39 98 39q26 0 52.5 -8.5t87.5 -34.5q123 -53 239 -53q104 0 156.5 34.5t52.5 98.5q0 54 -28 86q-31 31 -97 39l-176 25q-194 27 -293 129q-100 103 -100 293q0 203 143.5 331.5t388.5 128.5q174 0 314 -55q69 -28 109 -73.5t40 -102.5 q0 -60 -43 -111q-41 -49 -104 -49q-42 0 -127 35q-94 41 -199 41q-86 0 -131 -38.5t-45 -84.5q0 -49 29 -78q34 -34 100 -43l176 -24q192 -26 287 -121q109 -106 109 -320q0 -144 -77.5 -249.5t-204 -157t-282.5 -51.5q-211 0 -334 49q-96 38 -143 86t-47 123z" />
<glyph unicode="T" horiz-adv-x="1189" d="M49 1298q0 47 22 85.5t56 55.5q26 12 52.5 15.5t84.5 3.5h662q58 0 84.5 -3.5t52.5 -15.5q34 -17 56 -55.5t22 -85.5t-22 -85t-56 -55q-26 -12 -52.5 -15.5t-84.5 -3.5h-151v-906q0 -69 -3.5 -96t-18.5 -57q-20 -39 -62.5 -63.5t-95.5 -24.5t-95.5 24.5t-62.5 63.5 q-15 30 -18.5 57t-3.5 96v906h-151q-58 0 -84.5 3.5t-52.5 15.5q-34 17 -56 55t-22 85z" />
<glyph unicode="U" horiz-adv-x="1351" d="M121 512v713q0 69 3.5 96t18.5 57q20 39 62.5 63.5t95.5 24.5t95.5 -24.5t62.5 -63.5q15 -30 18.5 -57t3.5 -96v-705q0 -101 51.5 -157t141.5 -56t143 56.5t53 156.5v705q0 67 3.5 95t19.5 58q20 39 62.5 63.5t95.5 24.5t95 -24.5t62 -63.5q16 -30 19.5 -58t3.5 -95v-713 q0 -155 -76 -276t-202.5 -184.5t-278.5 -63.5t-277.5 63.5t-200.5 184.5t-75 276z" />
<glyph unicode="V" horiz-adv-x="1204" d="M41 1331q8 65 63.5 100t109.5 35q65 0 107 -42q21 -21 33 -45.5t32 -85.5l216 -666l216 666q20 59 32.5 84.5t33.5 46.5q42 42 106 42q54 0 109.5 -35t63.5 -100q2 -14 2 -27q0 -17 -3 -33q-5 -29 -24 -84l-342 -1023q-31 -93 -72 -129q-47 -43 -122 -43t-122 43 q-39 35 -71 129l-342 1023q-19 57 -25 85q-3 16 -3 34q0 12 2 25z" />
<glyph unicode="W" horiz-adv-x="1806" d="M51 1288q-1 9 -1 19q0 18 3 40q10 50 59.5 84.5t111.5 34.5q72 0 115 -49q19 -23 29 -48.5t25 -87.5l147 -593l194 636q20 66 56 102q40 40 113 40q74 0 114 -40q35 -35 55 -102l195 -636l146 593q15 62 25 87.5t29 48.5q43 49 115 49q62 0 111.5 -34.5t59.5 -84.5 q3 -21 3 -39q0 -10 -1 -20q-3 -26 -18 -88l-252 -1015q-26 -110 -84 -154q-52 -39 -120 -39t-120 39q-22 17 -39.5 45t-25.5 50t-19 59l-174 565l-174 -565q-11 -37 -19 -59t-25.5 -50t-39.5 -45q-52 -39 -120 -39q-67 0 -119 39q-58 44 -84 154l-252 1015q-16 64 -19 88z " />
<glyph unicode="X" horiz-adv-x="1179" d="M57 160q0 33 11.5 63t43.5 86l256 441l-233 400q-31 55 -42 85t-11 63q0 92 88 143q45 25 90 25q33 0 60 -11t48.5 -34.5t35.5 -43.5t33 -54l153 -271l152 271q19 33 33 53.5t36 44t49 34.5t60 11q45 0 90 -25q88 -51 88 -143q0 -33 -11 -62.5t-43 -85.5l-232 -400 l256 -441q32 -55 43 -85.5t11 -63.5q0 -92 -88 -143q-45 -25 -90 -25q-33 0 -60 11t-48.5 34.5t-35.5 43.5t-33 54l-177 314l-177 -314q-19 -34 -33 -54t-35.5 -43.5t-48.5 -34.5t-60 -11q-46 0 -91 25q-88 51 -88 143z" />
<glyph unicode="Y" horiz-adv-x="1140" d="M39 1307q0 41 25 78.5t70 60.5q40 20 84 20q47 0 85 -27q23 -18 38 -40.5t44 -80.5l185 -376l186 376q29 58 44 80.5t38 40.5q38 27 85 27q44 0 84 -20q45 -23 70 -60.5t25 -78.5q0 -29 -9 -55.5t-38 -83.5l-304 -608v-327q0 -67 -3.5 -95t-19.5 -58q-20 -39 -62.5 -63.5 t-95.5 -24.5t-95 24.5t-62 63.5q-16 30 -19.5 58t-3.5 95v327l-304 608q-29 57 -38 83.5t-9 55.5z" />
<glyph unicode="Z" horiz-adv-x="1176" d="M72 195q0 61 59 151l517 793h-336q-58 0 -84.5 3.5t-52.5 15.5q-34 17 -56 55t-22 85t22 85.5t56 55.5q26 12 52.5 15.5t84.5 3.5h525q47 0 74.5 -2t64 -15t61.5 -38q57 -59 57 -139q0 -60 -60 -152l-517 -793h363q58 0 84.5 -3.5t52.5 -15.5q34 -17 56 -55t22 -85 t-22 -85.5t-56 -55.5q-26 -12 -52.5 -15.5t-84.5 -3.5h-551q-48 0 -75 2t-64 15t-62 38q-56 57 -56 140z" />
<glyph unicode="a" horiz-adv-x="1101" d="M51 346q0 64 22.5 120.5t67 101.5t119.5 71.5t172 26.5h217v28q0 73 -37.5 105t-117.5 32q-65 0 -138 -30q-66 -27 -102 -27q-58 0 -94 45q-37 45 -37 101q0 49 31 83t71 52q132 59 275 59q238 0 361.5 -100t123.5 -299v-496q0 -63 -3.5 -90.5t-16.5 -54.5 q-18 -37 -58 -59.5t-90 -22.5q-106 0 -158 98q-60 -56 -112 -78t-135 -22q-167 0 -265 98q-96 96 -96 258zM373 352q0 -40 31 -65t90 -25q42 0 68 8t52 31q35 32 35 113v28h-160q-57 0 -86.5 -24t-29.5 -66z" />
<glyph unicode="b" horiz-adv-x="1165" d="M127 219v1020q0 63 3.5 90.5t16.5 54.5q18 37 58 59.5t90 22.5t89.5 -22.5t57.5 -59.5q13 -27 17 -55t4 -90v-217q92 92 246 92q169 0 264 -100q37 -38 59 -87t31.5 -116.5t11 -118.5t2 -141t-2 -141t-11.5 -118.5t-31 -116.5t-59 -87q-95 -100 -266 -100 q-84 0 -142.5 24.5t-111.5 77.5q-52 -98 -158 -98q-50 0 -90 22.5t-58 59.5q-13 27 -16.5 54.5t-3.5 90.5zM463 551q0 -54 2.5 -89.5t10.5 -70.5t23 -55t40.5 -32.5t62.5 -12.5t62.5 12.5t40.5 32.5t23 55t10.5 70.5t2.5 89.5t-2.5 89.5t-10.5 70.5t-23 55t-40.5 32.5 t-62.5 12.5t-62.5 -12.5t-40.5 -32.5t-23 -55t-10.5 -70.5t-2.5 -89.5z" />
<glyph unicode="c" horiz-adv-x="976" d="M78 551q0 138 34 242.5t85 164t120.5 96.5t130 48.5t125.5 11.5q111 0 191 -35q63 -27 112.5 -75t49.5 -107q0 -61 -47 -111q-18 -19 -46.5 -32t-56.5 -13q-45 0 -104 39q-49 31 -99 31q-61 0 -104 -43q-55 -58 -55 -217t55 -217q43 -43 104 -43q50 0 99 31q58 38 104 38 q28 0 56.5 -13t46.5 -32q47 -50 47 -110q0 -59 -49.5 -107t-112.5 -75q-80 -35 -191 -35q-65 0 -125.5 11.5t-130 48.5t-120.5 96.5t-85 164t-34 242.5z" />
<glyph unicode="d" horiz-adv-x="1165" d="M88 551q0 71 1 112.5t6.5 100.5t16.5 97.5t31 80t50 72.5q95 100 264 100q153 0 245 -92v217q0 62 4 90t17 55q18 37 57.5 59.5t89.5 22.5t90 -22.5t58 -59.5q13 -27 16.5 -54.5t3.5 -90.5v-1020q0 -63 -3.5 -90.5t-16.5 -54.5q-18 -37 -58 -59.5t-90 -22.5 q-105 0 -157 98q-53 -53 -111.5 -77.5t-142.5 -24.5q-171 0 -266 100q-30 31 -50 72.5t-31 80t-16.5 97.5t-6.5 100.5t-1 112.5zM424 551q0 -54 2.5 -89.5t10.5 -70.5t23 -55t40.5 -32.5t62.5 -12.5t62.5 12.5t40.5 32.5t23 55t10.5 70.5t2.5 89.5t-2.5 89.5t-10.5 70.5 t-23 55t-40.5 32.5t-62.5 12.5t-62.5 -12.5t-40.5 -32.5t-23 -55t-10.5 -70.5t-2.5 -89.5z" />
<glyph unicode="e" horiz-adv-x="1139" d="M78 551q0 265 135.5 414t357.5 149q112 0 204.5 -38t153.5 -104t96 -153t40 -186v-15q0 -90 -45 -135q-19 -19 -44.5 -28.5t-44 -11t-49.5 -1.5h-474q0 -72 53 -123t145 -51t166 49q64 43 117 43q48 0 90.5 -41.5t42.5 -97.5q0 -79 -104 -151q-119 -82 -316 -82 q-524 0 -524 563zM408 666h327q0 49 -18 86q-42 86 -146 86q-105 0 -145 -86q-18 -40 -18 -86z" />
<glyph unicode="f" horiz-adv-x="760" d="M18 930q0 82 64 112q37 17 111 17h1v96q0 59 20 115.5t59 104.5t106 77t152 29h7q87 0 135 -23q69 -34 69 -119q0 -87 -67 -120q-35 -18 -78 -19q-68 -3 -68 -70v-71h39q74 0 111 -17q63 -30 63 -112q0 -83 -63 -113q-34 -16 -111 -16h-39v-582q0 -63 -3.5 -90.5 t-16.5 -54.5q-18 -37 -58 -59.5t-90 -22.5t-89.5 22.5t-57.5 59.5q-13 27 -16.5 54.5t-3.5 90.5v582h-1q-77 0 -111 16q-30 14 -47 44t-17 69z" />
<glyph unicode="g" horiz-adv-x="1148" d="M88 592q0 179 17 267.5t85 156.5q98 98 261 98q81 0 136 -24t109 -78q52 98 158 98q50 0 89.5 -22.5t57.5 -59.5q13 -27 17 -55t4 -90v-803q0 -196 -137 -322.5t-361 -126.5q-173 0 -293 66q-106 58 -106 149q0 59 41 99.5t90 40.5q31 0 53 -5.5t62 -25.5q83 -41 137 -41 q93 0 135.5 49t42.5 123v76q-92 -92 -237 -92q-161 0 -259 98q-68 68 -85 156.5t-17 267.5zM424 592q0 -40 1.5 -66.5t9 -58.5t21 -50.5t38.5 -31t61 -12.5t61 12.5t38.5 31t21 50.5t9 58.5t1.5 66.5t-1.5 66.5t-9 58.5t-21 50.5t-38.5 31t-61 12.5t-61 -12.5t-38.5 -31 t-21 -50.5t-9 -58.5t-1.5 -66.5z" />
<glyph unicode="h" horiz-adv-x="1185" d="M127 219v1020q0 63 3.5 90.5t16.5 54.5q18 37 58 59.5t90 22.5t89.5 -22.5t57.5 -59.5q13 -27 17 -55t4 -90v-220q50 45 117 70t131 25q153 0 247 -94q65 -65 88 -140t23 -175v-486q0 -63 -3.5 -90.5t-16.5 -54.5q-18 -37 -58 -59.5t-90 -22.5t-89.5 22.5t-57.5 59.5 q-13 27 -17 55t-4 90v440q0 45 -14 77t-37 47t-43.5 21.5t-40.5 6.5t-40.5 -6.5t-43.5 -21.5t-37 -47t-14 -77v-440q0 -62 -4 -90t-17 -55q-18 -37 -57.5 -59.5t-89.5 -22.5t-90 22.5t-58 59.5q-13 27 -16.5 54.5t-3.5 90.5z" />
<glyph unicode="i" horiz-adv-x="589" d="M109 1356q0 76 54.5 131t131.5 55t131.5 -55t54.5 -131q0 -77 -55 -132t-131 -55t-131 55t-55 132zM127 219v621q0 63 3.5 90.5t16.5 54.5q18 37 58 59.5t90 22.5t89.5 -22.5t57.5 -59.5q13 -27 17 -55t4 -90v-621q0 -62 -4 -90t-17 -55q-18 -37 -57.5 -59.5t-89.5 -22.5 t-90 22.5t-58 59.5q-13 27 -16.5 54.5t-3.5 90.5z" />
<glyph unicode="j" horiz-adv-x="589" d="M-86 -227q0 88 68 121q31 15 83 18q62 3 62 70v858q0 63 3.5 90.5t16.5 54.5q18 37 58 59.5t90 22.5t89.5 -22.5t57.5 -59.5q13 -27 17 -55t4 -90v-883q0 -47 -12 -92.5t-38.5 -88t-65 -74.5t-96 -51.5t-126.5 -19.5h-6q-87 0 -135 23q-70 34 -70 119zM109 1356 q0 76 54.5 131t131.5 55t131.5 -55t54.5 -131q0 -77 -55 -132t-131 -55t-131 55t-55 132z" />
<glyph unicode="k" horiz-adv-x="1087" d="M127 219v1020q0 63 3.5 90.5t16.5 54.5q18 37 58 59.5t90 22.5t89.5 -22.5t57.5 -59.5q13 -27 17 -55t4 -90v-522l259 297q45 52 77 73.5t72 21.5q59 0 103 -39q54 -48 54 -112q0 -33 -17.5 -65.5t-59.5 -79.5l-176 -202l204 -325q31 -50 43 -81t12 -63q0 -74 -77 -123 q-45 -27 -87 -27q-51 0 -85 28.5t-76 96.5l-167 268l-79 -91v-75q0 -62 -4 -90t-17 -55q-18 -37 -57.5 -59.5t-89.5 -22.5t-90 22.5t-58 59.5q-13 27 -16.5 54.5t-3.5 90.5z" />
<glyph unicode="l" horiz-adv-x="679" d="M117 326v913q0 63 3.5 90.5t16.5 54.5q18 37 58 59.5t90 22.5t89.5 -22.5t57.5 -59.5q13 -27 17 -55t4 -90v-889q0 -66 62 -69q50 -3 83 -19q68 -33 68 -121q0 -84 -70 -118q-48 -23 -135 -23h-6q-69 0 -126.5 19.5t-96 51.5t-65 74.5t-38.5 88t-12 92.5z" />
<glyph unicode="m" horiz-adv-x="1792" d="M127 219v664q0 63 3.5 90.5t16.5 54.5q18 37 58 59.5t90 22.5q106 0 158 -98q49 49 118.5 75.5t139.5 26.5q165 0 268 -117q72 63 144 90t167 27q78 0 149 -25t115 -69q121 -121 121 -315v-486q0 -63 -3.5 -90.5t-16.5 -54.5q-18 -37 -58 -59.5t-90 -22.5t-89.5 22.5 t-57.5 59.5q-13 27 -17 55t-4 90v440q0 45 -14 77t-37 47t-43.5 21.5t-40.5 6.5t-40.5 -6.5t-43.5 -21.5t-37 -47t-14 -77v-440q0 -63 -3.5 -90.5t-16.5 -54.5q-18 -37 -58 -59.5t-90 -22.5t-89.5 22.5t-57.5 59.5q-13 27 -17 55t-4 90v440q0 45 -14 77t-37 47t-43.5 21.5 t-40.5 6.5t-40.5 -6.5t-43.5 -21.5t-37 -47t-14 -77v-440q0 -62 -4 -90t-17 -55q-18 -37 -57.5 -59.5t-89.5 -22.5t-90 22.5t-58 59.5q-13 27 -16.5 54.5t-3.5 90.5z" />
<glyph unicode="n" horiz-adv-x="1185" d="M127 219v664q0 63 3.5 90.5t16.5 54.5q18 37 58 59.5t90 22.5q106 0 158 -98q49 49 119 75.5t139 26.5q153 0 247 -94q65 -65 88 -140t23 -175v-486q0 -63 -3.5 -90.5t-16.5 -54.5q-18 -37 -58 -59.5t-90 -22.5t-89.5 22.5t-57.5 59.5q-13 27 -17 55t-4 90v440 q0 45 -14 77t-37 47t-43.5 21.5t-40.5 6.5t-40.5 -6.5t-43.5 -21.5t-37 -47t-14 -77v-440q0 -62 -4 -90t-17 -55q-18 -37 -57.5 -59.5t-89.5 -22.5t-90 22.5t-58 59.5q-13 27 -16.5 54.5t-3.5 90.5z" />
<glyph unicode="o" horiz-adv-x="1126" d="M88 551q0 162 26 255t95 167q133 141 354 141q222 0 355 -141q68 -74 94 -166.5t26 -255.5q0 -164 -26 -256t-94 -166q-133 -141 -355 -141q-221 0 -354 141q-69 75 -95 166.5t-26 255.5zM424 551q0 -93 9.5 -146t39.5 -83q31 -31 90 -31t90 31q30 30 39.5 83t9.5 146 t-9.5 146t-39.5 83q-31 31 -90 31t-90 -31q-30 -30 -39.5 -83t-9.5 -146z" />
<glyph unicode="p" horiz-adv-x="1165" d="M127 -137v1020q0 63 3.5 90.5t16.5 54.5q18 37 58 59.5t90 22.5q106 0 158 -98q53 53 111.5 77.5t142.5 24.5q171 0 266 -100q37 -38 59 -87t31.5 -116.5t11.5 -118.5t2 -141t-2 -141t-11.5 -118.5t-31.5 -116.5t-59 -87q-95 -100 -264 -100q-154 0 -246 92v-217 q0 -62 -4 -90.5t-17 -55.5q-18 -37 -57.5 -59.5t-89.5 -22.5t-90 22.5t-58 59.5q-13 27 -16.5 55t-3.5 91zM463 551q0 -54 2.5 -89.5t10.5 -70.5t23 -55t40.5 -32.5t62.5 -12.5t62.5 12.5t40.5 32.5t23 55t10.5 70.5t2.5 89.5t-2.5 89.5t-10.5 70.5t-23 55t-40.5 32.5 t-62.5 12.5t-62.5 -12.5t-40.5 -32.5t-23 -55t-10.5 -70.5t-2.5 -89.5z" />
<glyph unicode="q" horiz-adv-x="1165" d="M88 551q0 71 1 112.5t6.5 100.5t16.5 97.5t31 80t50 72.5q95 100 266 100q84 0 142.5 -24.5t111.5 -77.5q52 98 157 98q50 0 90 -22.5t58 -59.5q13 -27 16.5 -54.5t3.5 -90.5v-1020q0 -63 -3.5 -91t-16.5 -55q-18 -37 -58 -59.5t-90 -22.5t-89.5 22.5t-57.5 59.5 q-13 27 -17 55.5t-4 90.5v217q-92 -92 -245 -92q-169 0 -264 100q-30 31 -50 72.5t-31 80t-16.5 97.5t-6.5 100.5t-1 112.5zM424 551q0 -54 2.5 -89.5t10.5 -70.5t23 -55t40.5 -32.5t62.5 -12.5t62.5 12.5t40.5 32.5t23 55t10.5 70.5t2.5 89.5t-2.5 89.5t-10.5 70.5t-23 55 t-40.5 32.5t-62.5 12.5t-62.5 -12.5t-40.5 -32.5t-23 -55t-10.5 -70.5t-2.5 -89.5z" />
<glyph unicode="r" horiz-adv-x="978" d="M127 219v664q0 63 3.5 90.5t16.5 54.5q18 37 58 59.5t90 22.5q106 0 158 -98q41 41 106 71.5t134 30.5q114 0 186 -51q75 -53 75 -131q0 -74 -51 -125q-45 -45 -112 -45q-46 0 -103 26q-51 23 -86 23q-21 0 -42.5 -6.5t-44.5 -22t-37.5 -47.5t-14.5 -76v-440 q0 -62 -4 -90t-17 -55q-18 -37 -57.5 -59.5t-89.5 -22.5t-90 22.5t-58 59.5q-13 27 -16.5 54.5t-3.5 90.5z" />
<glyph unicode="s" horiz-adv-x="1032" d="M43 205q0 33 14.5 64.5t38.5 49.5q43 32 88 32q40 0 101 -32q103 -53 219 -53q60 0 100.5 20t40.5 58q0 63 -80 70l-170 16q-319 30 -319 320q0 88 37.5 159t100 115t139.5 67t161 23q150 0 272 -45q69 -25 105 -61q37 -38 37 -97q0 -29 -13 -58.5t-32 -47.5 q-40 -37 -90 -37q-30 0 -92 25q-122 51 -195 51q-47 0 -77 -19t-30 -50q0 -55 72 -62l170 -17q167 -17 249.5 -107t82.5 -229q0 -94 -38 -167t-105 -117t-151 -66t-183 -22q-130 0 -218 22.5t-161 71.5q-74 51 -74 123z" />
<glyph unicode="t" horiz-adv-x="785" d="M18 930q0 82 64 112q37 17 111 17h1v96q0 63 3.5 90.5t16.5 54.5q18 37 57.5 59.5t89.5 22.5t90 -22.5t58 -59.5q13 -27 16.5 -54.5t3.5 -90.5v-96h39q74 0 111 -17q63 -30 63 -112q0 -83 -63 -113q-34 -16 -111 -16h-39v-451q0 -66 63 -69q50 -3 83 -19q67 -33 67 -121 q0 -84 -69 -118q-48 -23 -135 -23h-7q-85 0 -152 29t-106 77t-59 104.5t-20 115.5v475h-1q-77 0 -111 16q-30 14 -47 44t-17 69z" />
<glyph unicode="u" horiz-adv-x="1185" d="M117 397v486q0 63 3.5 90.5t16.5 54.5q18 37 58 59.5t90 22.5t89.5 -22.5t57.5 -59.5q13 -27 17 -55t4 -90v-441q0 -36 10 -64t24.5 -44t33.5 -26t35.5 -13.5t31.5 -3.5t31.5 3.5t35.5 13.5t33.5 26t24.5 44t10 64v441q0 63 3.5 90.5t16.5 54.5q18 37 58 59.5t90 22.5 t89.5 -22.5t57.5 -59.5q13 -27 17 -55t4 -90v-664q0 -62 -4 -90t-17 -55q-18 -37 -57.5 -59.5t-89.5 -22.5q-106 0 -158 98q-49 -49 -119 -75.5t-139 -26.5q-154 0 -248 94q-65 65 -87.5 140t-22.5 175z" />
<glyph unicode="v" horiz-adv-x="968" d="M39 1005q15 45 59 75t99 30q38 0 65 -12.5t45.5 -40.5t27 -47.5t21.5 -59.5l128 -394l128 394q10 31 16.5 47t20.5 41.5t28.5 38.5t39 23t55.5 10q55 0 99 -30t59 -75q6 -18 6 -39q0 -17 -4 -37q-4 -22 -9 -37t-13 -41l-232 -687q-31 -93 -72 -129q-47 -43 -122 -43 t-122 43q-39 35 -71 129l-233 687q-24 73 -24 118q0 21 5 36z" />
<glyph unicode="w" horiz-adv-x="1554" d="M34 938q-1 10 -1 20q0 16 3 34q9 49 55.5 83.5t102.5 34.5q68 0 106 -43q19 -21 30 -45t25 -79l115 -413l140 426q28 85 63 117q40 37 104 37q65 0 105 -37q33 -31 62 -117l140 -426l115 413q14 55 25 79t30 45q38 43 107 43q56 0 102.5 -34.5t55.5 -83.5q2 -18 2 -32 q1 -13 -1 -23q-4 -22 -20 -80l-204 -698q-28 -92 -67 -125q-49 -42 -119 -42q-68 0 -118 42q-37 32 -68 125l-147 445l-146 -445q-30 -92 -69 -125q-50 -42 -118 -42t-118 42q-41 34 -68 125l-204 698q-16 57 -20 81z" />
<glyph unicode="x" horiz-adv-x="967" d="M56 142q0 59 56 144l179 271l-169 258q-55 83 -55 143q0 75 76 123q46 28 87 28q52 0 85.5 -28t76.5 -97l92 -148l93 148q43 69 76 97t85 28q41 0 87 -28q77 -49 77 -123q0 -60 -55 -143l-169 -258l179 -271q55 -83 55 -144q0 -75 -76 -123q-45 -27 -87 -27q-52 0 -87 29 t-75 96l-103 168l-102 -168q-40 -67 -75 -96t-87 -29q-42 0 -87 27q-77 49 -77 123z" />
<glyph unicode="y" horiz-adv-x="968" d="M39 1005q15 45 59 75t99 30q38 0 65.5 -13t45.5 -39.5t27 -48.5t21 -59l128 -424l128 424q11 37 20.5 59t28 48.5t46 39.5t65.5 13q55 0 99 -30t59 -75q6 -18 6 -39q0 -17 -4 -37q-5 -22 -9.5 -37t-12.5 -41l-339 -986q-30 -87 -86 -146q-89 -92 -239 -92q-113 0 -154 41 q-45 45 -45 111q0 79 49 119q23 18 43.5 24t59.5 6q68 0 96 84l23 70l-260 769q-24 73 -24 118q0 21 5 36z" />
<glyph unicode="z" horiz-adv-x="983" d="M43 139q0 42 14 74t54 86l374 500h-213q-56 0 -81.5 3t-49.5 15q-33 17 -53 52.5t-20 80.5t20 80.5t53 52.5q39 19 131 19h463q89 0 135 -23q35 -18 52.5 -49.5t17.5 -66.5q0 -42 -14 -74t-54 -86l-376 -500h239q56 0 81.5 -3t49.5 -15q33 -17 53.5 -52.5t20.5 -80.5 t-20.5 -81t-53.5 -53q-24 -12 -49.5 -15t-81.5 -3h-487q-89 0 -135 23q-35 18 -52.5 49.5t-17.5 66.5z" />
<glyph unicode="|" horiz-adv-x="745" d="M205 69v1322q0 63 3.5 90.5t16.5 54.5q18 37 58 59.5t90 22.5t89.5 -22.5t57.5 -59.5q13 -27 17 -55t4 -90v-1322q0 -62 -4 -90.5t-17 -55.5q-18 -37 -57.5 -59.5t-89.5 -22.5t-90 22.5t-58 59.5q-13 27 -16.5 55t-3.5 91z" />
<glyph unicode="}" horiz-adv-x="1060" d="M74 0q0 45 20 80.5t53 52.5q38 18 95 19q75 2 101 28q33 33 33 131v213q0 58 16.5 99.5t45 62.5t46 29t41.5 14q-24 6 -41.5 14t-46 29t-45 62.5t-16.5 99.5v213q0 98 -33 131q-27 27 -101 29q-59 1 -95 18q-33 17 -53 52.5t-20 80.5t20 80.5t53 52.5q39 19 132 19h91 q157 0 243 -86q99 -99 99 -241v-243q0 -88 34 -122q24 -24 64 -32q7 -1 27.5 -5t27.5 -5.5t22.5 -5.5t23.5 -7.5t18 -10t18 -14.5q41 -41 41 -109q0 -67 -41 -108q-7 -7 -14 -12.5t-17.5 -10t-17 -7t-21 -6t-20 -4.5t-23.5 -4.5t-24 -4.5q-41 -8 -64 -31q-34 -34 -34 -123 v-244q0 -141 -99 -240q-86 -86 -243 -86h-91q-93 0 -132 19q-33 17 -53 52.5t-20 80.5z" />
<glyph unicode="~" horiz-adv-x="1323" d="M76 580q0 77 84 147q68 57 132 79.5t150 22.5q132 0 252 -69q89 -51 172 -51q67 0 133 49q47 35 95 35q65 0 114 -58q39 -46 39 -102q0 -78 -84 -148q-68 -57 -132 -79.5t-150 -22.5q-128 0 -252 70q-89 51 -172 51q-67 0 -133 -49q-47 -35 -95 -35q-66 0 -114 57 q-39 46 -39 103z" />
<glyph unicode="&#xa1;" horiz-adv-x="749" d="M139 914q0 80 57.5 137.5t137.5 57.5q79 0 136.5 -57.5t57.5 -137.5t-57 -137t-137 -57t-137.5 57.5t-57.5 136.5zM153 -122v506q0 69 3.5 96.5t18.5 57.5q20 39 62.5 63.5t95.5 24.5t95 -24.5t62 -63.5q16 -30 19.5 -58.5t3.5 -95.5v-506q0 -67 -3.5 -95t-19.5 -58 q-20 -39 -62 -64t-95 -25t-95.5 25t-62.5 64q-15 30 -18.5 57.5t-3.5 95.5z" />
<glyph unicode="&#xa2;" horiz-adv-x="976" d="M78 750q0 106 20 193t52.5 145t79 101.5t93.5 67t101 37.5q0 71 18 106q15 30 47 48t74 18t74 -18t47 -48q17 -34 18 -102q32 -8 62 -20q63 -27 112.5 -75t49.5 -107q0 -61 -47 -111q-18 -19 -46.5 -32t-56.5 -13q-45 0 -104 39q-49 31 -99 31q-61 0 -104 -43 q-55 -58 -55 -217q0 -160 55 -218q43 -43 104 -43q50 0 99 31q59 39 104 39q28 0 56.5 -13t46.5 -32q47 -50 47 -111q0 -59 -49.5 -107t-112.5 -75q-28 -12 -62 -21v-20q0 -52 -3 -75.5t-15 -46.5q-15 -30 -47 -48t-74 -18t-74 18t-47 48q-12 23 -15 46.5t-3 75.5v24 q-54 14 -101 38t-93.5 67.5t-79 101.5t-52.5 145t-20 194z" />
<glyph unicode="&#xa3;" horiz-adv-x="1300" d="M90 698q0 39 17 69t47 44q34 16 110 16h6v131q0 125 46.5 225t125 161.5t175 93.5t202.5 32q177 0 296 -73q107 -66 107 -169q0 -72 -47 -119q-39 -39 -84 -39q-30 0 -52.5 6.5t-62.5 28.5q-83 46 -155 46q-87 0 -138.5 -50.5t-51.5 -150.5v-123h81q76 0 110 -16 q30 -14 47 -44t17 -69q0 -82 -64 -112q-37 -17 -110 -17h-81v-250h381q58 0 84.5 -3.5t52.5 -15.5q34 -17 56 -55t22 -85t-22 -85.5t-56 -55.5q-26 -12 -52.5 -15.5t-84.5 -3.5h-522q-37 0 -58.5 1.5t-54.5 13.5t-56 35t-35 56t-14 55.5t-2 58.5v349h-6q-73 0 -110 17 q-64 30 -64 112z" />
<glyph unicode="&#xaa;" horiz-adv-x="933" d="M92 855q0 109 75.5 180t225.5 71h182v41q0 59 -34 86t-103 27q-60 0 -121 -29q-51 -24 -81 -24q-42 0 -65 27q-27 33 -27 75q0 71 93 113t213 42q369 0 369 -310v-408q0 -72 -15 -104q-28 -60 -107 -60q-87 0 -113 76q-47 -45 -92.5 -62.5t-118.5 -17.5q-133 0 -207 76.5 t-74 200.5zM328 861q0 -82 110 -82q74 0 106 32q31 31 31 97v36h-149q-48 0 -73 -22.5t-25 -60.5z" />
<glyph unicode="&#xad;" horiz-adv-x="872" d="M92 604q0 45 20.5 80.5t53.5 52.5q39 19 131 19h278q93 0 132 -19q33 -17 53 -52.5t20 -80.5t-20 -80.5t-53 -52.5q-24 -11 -50 -14.5t-82 -3.5h-278q-56 0 -81.5 3t-49.5 15q-33 17 -53.5 52.5t-20.5 80.5z" />
<glyph unicode="&#xb3;" horiz-adv-x="696" d="M62 804q0 47 25 76q35 42 90 42q40 0 71 -23q20 -17 33 -53q11 -31 27 -44.5t44 -13.5q31 0 48.5 18.5t17.5 53.5q0 27 -20 48.5t-45 22.5q-47 2 -70 25q-27 27 -27 73q0 50 27 77t70 27q27 0 43 20t16 39q0 29 -17 45t-41 16t-37.5 -11.5t-22.5 -38.5q-12 -32 -35 -53 q-30 -23 -69 -23q-49 0 -81 33.5t-32 83.5q0 90 73 151q82 71 204 71q126 0 209.5 -75.5t83.5 -190.5q0 -45 -15 -80.5t-29 -50.5t-38 -33q20 -19 30 -30t27 -35t25 -53.5t8 -65.5q0 -91 -43.5 -155.5t-110.5 -93t-149 -28.5q-133 0 -218 76q-72 63 -72 153z" />
<glyph unicode="&#xb9;" horiz-adv-x="696" d="M50 1158q7 19 18.5 34.5t42.5 46.5l168 168q59 59 125 59q57 0 93 -33q17 -16 26 -38.5t10.5 -38.5t1.5 -43v-573q0 -69 -16 -104q-29 -61 -106 -61q-78 0 -107 61q-15 32 -15 104v350l-16 -16q-30 -30 -45.5 -41.5t-34.5 -18.5q-63 -21 -114 30q-52 52 -31 114z" />
<glyph unicode="&#xba;" horiz-adv-x="948" d="M103 1021q0 132 24.5 208t81.5 133q102 102 265 102t265 -102q57 -57 81.5 -133t24.5 -208q0 -133 -24.5 -208.5t-82.5 -133.5q-101 -101 -264 -101t-264 101q-58 58 -82.5 133.5t-24.5 208.5zM347 1021q0 -77 7.5 -122t32.5 -70q33 -33 87 -33t87 33q25 25 33 70.5 t8 121.5t-8 121t-33 70q-34 34 -87 34t-87 -34q-25 -25 -32.5 -69.5t-7.5 -121.5z" />
<glyph unicode="&#xdf;" horiz-adv-x="1193" d="M127 219v844q0 88 25 157.5t68.5 116t106 77t134 43.5t155.5 13q220 0 348 -92.5t128 -277.5q0 -153 -125 -223q57 -28 91 -75.5t34 -135.5v-344q0 -64 -22 -126t-66 -106q-94 -94 -240 -94h-6q-105 0 -153 48q-40 40 -40 101q0 66 38 104q33 33 89 36q64 3 64 80v301 q0 76 -64 79q-63 3 -94 34q-33 33 -33 91q0 59 33 92q30 30 94 33t64 80q0 42 -26 68q-35 35 -114 35q-87 0 -120 -36.5t-33 -115.5v-807q0 -62 -4 -90t-17 -55q-18 -37 -57.5 -59.5t-89.5 -22.5t-90 22.5t-58 59.5q-13 27 -16.5 54.5t-3.5 90.5z" />
<glyph unicode="&#xe0;" horiz-adv-x="1101" d="M51 346q0 64 22.5 120.5t67 101.5t119.5 71.5t172 26.5h217v28q0 73 -37.5 105t-117.5 32q-65 0 -138 -30q-66 -27 -102 -27q-58 0 -94 45q-37 45 -37 101q0 49 31 83t71 52q132 59 275 59q238 0 361.5 -100t123.5 -299v-496q0 -63 -3.5 -90.5t-16.5 -54.5 q-18 -37 -58 -59.5t-90 -22.5q-106 0 -158 98q-60 -56 -112 -78t-135 -22q-167 0 -265 98q-96 96 -96 258zM237 1554q-7 74 67 121q40 24 78 24q36 0 71 -23q22 -15 68 -87l77 -123q28 -44 37.5 -65t11.5 -47q7 -74 -67 -121q-40 -24 -78 -24q-36 0 -71 23q-24 16 -69 87 l-76 123q-28 44 -37.5 65t-11.5 47zM373 352q0 -40 31 -65t90 -25q42 0 68 8t52 31q35 32 35 113v28h-160q-57 0 -86.5 -24t-29.5 -66z" />
<glyph unicode="&#xe1;" horiz-adv-x="1101" d="M51 346q0 64 22.5 120.5t67 101.5t119.5 71.5t172 26.5h217v28q0 73 -37.5 105t-117.5 32q-65 0 -138 -30q-66 -27 -102 -27q-58 0 -94 45q-37 45 -37 101q0 49 31 83t71 52q132 59 275 59q238 0 361.5 -100t123.5 -299v-496q0 -63 -3.5 -90.5t-16.5 -54.5 q-18 -37 -58 -59.5t-90 -22.5q-106 0 -158 98q-60 -56 -112 -78t-135 -22q-167 0 -265 98q-96 96 -96 258zM373 352q0 -40 31 -65t90 -25q42 0 68 8t52 31q35 32 35 113v28h-160q-57 0 -86.5 -24t-29.5 -66zM434 1354q2 26 11.5 47t37.5 65l77 123q45 71 69 87q35 23 70 23 q38 0 78 -24q75 -47 68 -121q-2 -26 -11.5 -47t-37.5 -65l-77 -123q-45 -71 -69 -87q-35 -23 -70 -23q-38 0 -78 24q-75 47 -68 121z" />
<glyph unicode="&#xe4;" horiz-adv-x="1101" d="M51 346q0 64 22.5 120.5t67 101.5t119.5 71.5t172 26.5h217v28q0 73 -37.5 105t-117.5 32q-65 0 -138 -30q-66 -27 -102 -27q-58 0 -94 45q-37 45 -37 101q0 49 31 83t71 52q132 59 275 59q238 0 361.5 -100t123.5 -299v-496q0 -63 -3.5 -90.5t-16.5 -54.5 q-18 -37 -58 -59.5t-90 -22.5q-106 0 -158 98q-60 -56 -112 -78t-135 -22q-167 0 -265 98q-96 96 -96 258zM137 1393q0 67 48 115t116 48t116 -48t48 -115t-48.5 -115.5t-115.5 -48.5t-115.5 48.5t-48.5 115.5zM373 352q0 -40 31 -65t90 -25q42 0 68 8t52 31q35 32 35 113 v28h-160q-57 0 -86.5 -24t-29.5 -66zM616 1393q0 67 48 115t116 48t116 -48t48 -115t-48 -115.5t-116 -48.5t-116 48.5t-48 115.5z" />
<glyph unicode="&#xe7;" horiz-adv-x="976" d="M78 551q0 138 34 242.5t85 164t120.5 96.5t130 48.5t125.5 11.5q111 0 191 -35q63 -27 112.5 -75t49.5 -107q0 -61 -47 -111q-18 -19 -46.5 -32t-56.5 -13q-45 0 -104 39q-49 31 -99 31q-61 0 -104 -43q-55 -58 -55 -217t55 -217q43 -43 104 -43q50 0 99 31q58 38 104 38 q28 0 56.5 -13t46.5 -32q47 -50 47 -110q0 -59 -49.5 -107t-112.5 -75q-80 -35 -191 -35q-65 0 -125.5 11.5t-130 48.5t-120.5 96.5t-85 164t-34 242.5zM280 -424q2 26 11.5 47.5t37.5 65.5l77 123q46 72 68 87q34 22 71 22q40 0 78 -23q74 -47 67 -121q-2 -26 -11.5 -47.5 t-37.5 -65.5l-77 -123q-46 -72 -68 -87q-34 -22 -71 -22q-40 0 -78 23q-74 47 -67 121z" />
<glyph unicode="&#xe9;" horiz-adv-x="1139" d="M78 551q0 265 135.5 414t357.5 149q112 0 204.5 -38t153.5 -104t96 -153t40 -186q4 -101 -45 -150q-19 -19 -44.5 -28.5t-44 -11t-49.5 -1.5h-474q0 -72 53 -123t145 -51t166 49q64 43 117 43q48 0 90.5 -41.5t42.5 -97.5q0 -79 -104 -151q-119 -82 -316 -82 q-524 0 -524 563zM408 666h327q0 49 -18 86q-42 86 -146 86q-105 0 -145 -86q-18 -40 -18 -86zM473 1354q2 26 11.5 47t37.5 65l77 123q45 71 69 87q35 23 70 23q38 0 78 -24q75 -47 68 -121q-2 -26 -11.5 -47t-37.5 -65l-77 -123q-45 -71 -69 -87q-35 -23 -71 -23 q-37 0 -77 24q-75 47 -68 121z" />
<glyph unicode="&#xed;" horiz-adv-x="589" d="M127 219v621q0 63 3.5 90.5t16.5 54.5q18 37 58 59.5t90 22.5t89.5 -22.5t57.5 -59.5q13 -27 17 -55t4 -90v-621q0 -62 -4 -90t-17 -55q-18 -37 -57.5 -59.5t-89.5 -22.5t-90 22.5t-58 59.5q-13 27 -16.5 54.5t-3.5 90.5zM188 1354q2 25 11.5 46t38.5 66l76 123 q45 71 69 87q35 23 71 23q37 0 77 -24q75 -47 68 -121q-2 -26 -11.5 -47t-37.5 -65l-77 -123q-45 -71 -69 -87q-35 -23 -70 -23q-38 0 -78 24q-75 47 -68 121z" />
<glyph unicode="&#xf6;" horiz-adv-x="1126" d="M88 551q0 162 26 255t95 167q133 141 354 141q222 0 355 -141q68 -74 94 -166.5t26 -255.5q0 -164 -26 -256t-94 -166q-133 -141 -355 -141q-221 0 -354 141q-69 75 -95 166.5t-26 255.5zM160 1393q0 67 48 115t116 48t115.5 -48t47.5 -115q0 -68 -48 -116t-115 -48 q-68 0 -116 48.5t-48 115.5zM424 551q0 -93 9.5 -146t39.5 -83q31 -31 90 -31t90 31q30 30 39.5 83t9.5 146t-9.5 146t-39.5 83q-31 31 -90 31t-90 -31q-30 -30 -39.5 -83t-9.5 -146zM639 1393q0 67 48 115t116 48t116 -48t48 -115t-48.5 -115.5t-115.5 -48.5t-115.5 48.5 t-48.5 115.5z" />
<glyph unicode="&#xfd;" horiz-adv-x="968" d="M39 1005q15 45 59 75t99 30q38 0 65.5 -13t45.5 -39.5t27 -48.5t21 -59l128 -424l128 424q11 37 20.5 59t28 48.5t46 39.5t65.5 13q55 0 99 -30t59 -75q5 -16 5.5 -35t-4 -41t-9 -37t-12.5 -41l-339 -986q-30 -87 -86 -146q-89 -92 -239 -92q-113 0 -154 41 q-45 45 -45 111q0 79 49 119q23 18 43.5 24t59.5 6q68 0 96 84l23 70l-260 769q-35 106 -19 154zM378 1354q2 26 11.5 47t37.5 65l77 123q46 72 68 87q35 23 71 23q38 0 78 -24q74 -47 67 -121q-2 -26 -11.5 -47t-37.5 -65l-76 -123q-45 -71 -69 -87q-35 -23 -71 -23 q-38 0 -78 24q-74 47 -67 121z" />
<glyph unicode="&#xfe;" horiz-adv-x="1165" d="M127 -137v1376q0 63 3.5 90.5t16.5 54.5q18 37 58 59.5t90 22.5t89.5 -22.5t57.5 -59.5q13 -27 17 -55t4 -90v-217q92 92 246 92q169 0 264 -100q37 -38 59 -87t31.5 -116.5t11.5 -118.5t2 -141t-2 -141t-11.5 -118.5t-31.5 -116.5t-59 -87q-95 -100 -264 -100 q-154 0 -246 92v-217q0 -62 -4 -90.5t-17 -55.5q-18 -37 -57.5 -59.5t-89.5 -22.5t-90 22.5t-58 59.5q-13 27 -16.5 55t-3.5 91zM463 551q0 -54 2.5 -89.5t10.5 -70.5t23 -55t40.5 -32.5t62.5 -12.5t62.5 12.5t40.5 32.5t23 55t10.5 70.5t2.5 89.5t-2.5 89.5t-10.5 70.5 t-23 55t-40.5 32.5t-62.5 12.5t-62.5 -12.5t-40.5 -32.5t-23 -55t-10.5 -70.5t-2.5 -89.5z" />
<glyph unicode="&#xff;" horiz-adv-x="968" d="M39 1005q15 45 59 75t99 30q38 0 65.5 -13t45.5 -39.5t27 -48.5t21 -59l128 -424l128 424q11 37 20.5 59t28 48.5t46 39.5t65.5 13q55 0 99 -30t59 -75q5 -16 5.5 -35t-4 -41t-9 -37t-12.5 -41l-339 -986q-30 -87 -86 -146q-89 -92 -239 -92q-113 0 -154 41 q-45 45 -45 111q0 79 49 119q23 18 43.5 24t59.5 6q68 0 96 84l23 70l-260 769q-35 106 -19 154zM81 1393q0 67 48 115t116 48t116 -48t48 -115t-48.5 -115.5t-115.5 -48.5t-115.5 48.5t-48.5 115.5zM560 1393q0 67 48 115t116 48t116 -48t48 -115t-48 -115.5t-116 -48.5 t-116 48.5t-48 115.5z" />
<glyph unicode="&#x2c6;" horiz-adv-x="1024" d="M158 1367q7 22 20 39t46 50l143 142q24 24 39.5 37t45 27t60.5 14t60.5 -14t45 -27t39.5 -37l143 -142q33 -33 46 -50t20 -39q23 -68 -35 -126q-57 -57 -124 -35q-22 8 -40 21t-51 46l-104 104l-104 -104q-33 -33 -51 -46t-40 -21q-67 -22 -124 35q-58 58 -35 126z" />
<glyph unicode="&#x2dc;" horiz-adv-x="1024" d="M156 1390q0 58 66 113q44 35 90 49.5t109 14.5q48 0 83 -8.5t85 -35.5q57 -32 107 -32q44 0 89 30q40 27 75 27q53 0 86 -41q25 -32 25 -79q0 -57 -67 -113q-44 -35 -89.5 -49.5t-108.5 -14.5q-48 0 -83 8.5t-85 35.5q-57 32 -108 32q-44 0 -89 -30q-40 -27 -75 -27 q-53 0 -86 41q-24 31 -24 79z" />
<glyph unicode="&#x2000;" horiz-adv-x="849" />
<glyph unicode="&#x2001;" horiz-adv-x="1699" />
<glyph unicode="&#x2002;" horiz-adv-x="849" />
<glyph unicode="&#x2003;" horiz-adv-x="1699" />
<glyph unicode="&#x2004;" horiz-adv-x="566" />
<glyph unicode="&#x2005;" horiz-adv-x="424" />
<glyph unicode="&#x2006;" horiz-adv-x="283" />
<glyph unicode="&#x2007;" horiz-adv-x="283" />
<glyph unicode="&#x2008;" horiz-adv-x="212" />
<glyph unicode="&#x2009;" horiz-adv-x="339" />
<glyph unicode="&#x200a;" horiz-adv-x="94" />
<glyph unicode="&#x2010;" horiz-adv-x="872" d="M92 604q0 45 20.5 80.5t53.5 52.5q39 19 131 19h278q93 0 132 -19q33 -17 53 -52.5t20 -80.5t-20 -80.5t-53 -52.5q-24 -11 -50 -14.5t-82 -3.5h-278q-56 0 -81.5 3t-49.5 15q-33 17 -53.5 52.5t-20.5 80.5z" />
<glyph unicode="&#x2011;" horiz-adv-x="872" d="M92 604q0 45 20.5 80.5t53.5 52.5q39 19 131 19h278q93 0 132 -19q33 -17 53 -52.5t20 -80.5t-20 -80.5t-53 -52.5q-24 -11 -50 -14.5t-82 -3.5h-278q-56 0 -81.5 3t-49.5 15q-33 17 -53.5 52.5t-20.5 80.5z" />
<glyph unicode="&#x2012;" horiz-adv-x="872" d="M92 604q0 45 20.5 80.5t53.5 52.5q39 19 131 19h278q93 0 132 -19q33 -17 53 -52.5t20 -80.5t-20 -80.5t-53 -52.5q-24 -11 -50 -14.5t-82 -3.5h-278q-56 0 -81.5 3t-49.5 15q-33 17 -53.5 52.5t-20.5 80.5z" />
<glyph unicode="&#x2013;" d="M92 603q0 45 20.5 80.5t53.5 52.5q39 19 131 19h545q92 0 131 -19q33 -17 53.5 -52.5t20.5 -80.5t-20.5 -80.5t-53.5 -52.5q-24 -12 -49.5 -15t-81.5 -3h-545q-56 0 -81.5 3t-49.5 15q-33 17 -53.5 52.5t-20.5 80.5z" />
<glyph unicode="&#x2014;" horiz-adv-x="2238" d="M92 604q0 45 20.5 80.5t53.5 52.5q39 19 131 19h1645q92 0 131 -19q33 -17 53 -52.5t20 -80.5t-20 -80.5t-53 -52.5q-24 -12 -49.5 -15t-81.5 -3h-1645q-56 0 -81.5 3t-49.5 15q-33 17 -53.5 52.5t-20.5 80.5z" />
<glyph unicode="&#x2026;" horiz-adv-x="1810" d="M86 209q0 89 63 152t152 63t152 -63t63 -152t-63 -152t-152 -63t-152 63t-63 152zM690 209q0 89 63 152t152 63t152 -63t63 -152t-63 -152t-152 -63t-152 63t-63 152zM1294 209q0 89 63 152t152 63t152 -63t63 -152t-63 -152t-152 -63t-152 63t-63 152z" />
<glyph unicode="&#x202f;" horiz-adv-x="339" />
<glyph unicode="&#x2039;" horiz-adv-x="769" d="M61 573l305 305q41 41 62 56.5t47 24.5q36 12 77 0.5t74 -44.5t44.5 -73.5t-0.5 -76.5q-9 -26 -25.5 -48t-56.5 -62l-82 -82l82 -81q40 -40 56.5 -62t25.5 -48q12 -36 0.5 -77t-44.5 -74t-74 -44.5t-77 0.5q-26 9 -46.5 24.5t-62.5 57.5z" />
<glyph unicode="&#x203a;" horiz-adv-x="769" d="M98.5 305q-11.5 41 0.5 77q9 26 25.5 48t56.5 62l82 81l-82 82q-40 40 -56.5 62t-25.5 48q-12 36 -0.5 76.5t44.5 73.5t74 44.5t77 -0.5q26 -9 47 -24.5t62 -56.5l305 -305l-305 -304q-42 -42 -62.5 -57.5t-46.5 -24.5q-36 -12 -77 -0.5t-74 44.5t-44.5 74z" />
<glyph unicode="&#x205f;" horiz-adv-x="424" />
<glyph unicode="&#x20ac;" horiz-adv-x="1389" d="M88 567q0 75 58 103q32 14 101 14h3v94h-3q-67 0 -101 15q-58 28 -58 102t58 102q34 15 101 15h15q24 185 138 299q159 159 403 159q134 0 217 -24.5t150 -85.5q75 -67 107 -139.5t32 -130.5q0 -86 -51 -137q-50 -50 -123 -50q-56 0 -97 28q-27 19 -47.5 46t-47.5 74 q-31 54 -65 77t-83 23q-80 0 -129 -64q-26 -36 -37 -75h77q66 0 100 -15q58 -28 58 -102t-58 -102q-34 -15 -100 -15h-96v-94h96q68 0 100 -14q58 -28 58 -103q0 -74 -58 -102q-32 -14 -100 -14h-78q11 -43 38 -80q49 -64 129 -64q49 0 83 23t65 78q26 46 47 73t48 46 q41 28 97 28q73 0 123 -50q51 -51 51 -136q0 -59 -32 -131.5t-107 -139.5q-67 -61 -150 -85.5t-217 -24.5q-244 0 -403 159q-113 111 -139 304h-14q-69 0 -101 14q-58 28 -58 102z" />
<glyph unicode="&#x2122;" horiz-adv-x="1992" d="M96 1352q0 66 51 92q29 14 92 14h399q62 0 91 -14q51 -26 51 -92t-51 -92q-31 -15 -91 -15h-78v-505q0 -72 -15 -104q-29 -61 -107 -61q-77 0 -106 61q-16 35 -16 104v505h-77q-61 0 -92 15q-51 26 -51 92zM893 740v555q0 89 40 128q44 43 106 43q45 0 77 -16 q36 -18 66 -73l194 -348l195 348q30 56 65 73q32 16 77 16q63 0 107 -43q40 -39 40 -128v-555q0 -69 -16 -104q-29 -61 -106 -61q-78 0 -107 61q-15 32 -15 104v291l-103 -196q-19 -35 -55 -57t-82 -22t-82 22t-55 57l-102 196v-291q0 -69 -16 -104q-29 -61 -106 -61 q-78 0 -107 61q-15 32 -15 104z" />
<glyph unicode="&#x25fc;" horiz-adv-x="1111" d="M0 0v1111h1111v-1111h-1111z" />
<glyph unicode="&#xfb01;" horiz-adv-x="1302" d="M18 930q0 82 64 112q37 17 111 17h1v96q0 59 20 115.5t59 104.5t106 77t152 29h7q87 0 135 -23q69 -34 69 -119q0 -87 -67 -120q-35 -18 -78 -19q-68 -3 -68 -70v-71h39q74 0 111 -17q63 -30 63 -112q0 -83 -63 -113q-34 -16 -111 -16h-39v-582q0 -63 -3.5 -90.5 t-16.5 -54.5q-18 -37 -58 -59.5t-90 -22.5t-89.5 22.5t-57.5 59.5q-13 27 -16.5 54.5t-3.5 90.5v582h-1q-77 0 -111 16q-30 14 -47 44t-17 69zM821 1356q0 76 55 131t132 55q76 0 131 -55t55 -131q0 -77 -55 -132t-131 -55t-131.5 55.5t-55.5 131.5zM840 219v621 q0 63 3.5 90.5t16.5 54.5q18 37 58 59.5t90 22.5t89.5 -22.5t57.5 -59.5q13 -27 17 -55t4 -90v-621q0 -62 -4 -90t-17 -55q-18 -37 -57.5 -59.5t-89.5 -22.5t-90 22.5t-58 59.5q-13 27 -16.5 54.5t-3.5 90.5z" />
<glyph unicode="&#xfb02;" horiz-adv-x="1413" d="M18 930q0 82 64 112q37 17 111 17h1v96q0 59 20 115.5t59 104.5t106 77t152 29h7q87 0 135 -23q69 -34 69 -119q0 -87 -67 -120q-35 -18 -78 -19q-68 -3 -68 -70v-71h39q74 0 111 -17q63 -30 63 -112q0 -83 -63 -113q-34 -16 -111 -16h-39v-582q0 -63 -3.5 -90.5 t-16.5 -54.5q-18 -37 -58 -59.5t-90 -22.5t-89.5 22.5t-57.5 59.5q-13 27 -16.5 54.5t-3.5 90.5v582h-1q-77 0 -111 16q-30 14 -47 44t-17 69zM850 326v913q0 63 3.5 90.5t16.5 54.5q18 37 58 59.5t90 22.5t89.5 -22.5t57.5 -59.5q13 -27 17 -55t4 -90v-889q0 -66 62 -69 q50 -3 83 -19q68 -33 68 -121q0 -84 -70 -118q-48 -23 -135 -23h-6q-69 0 -126.5 19.5t-96 51.5t-65 74.5t-38.5 88t-12 92.5z" />
</font>
</defs>
</svg>
